<?xml version="1.0" encoding="UTF-8"?>
<!DOCTYPE svg PUBLIC "-//W3C//DTD SVG 1.1//EN" "http://www.w3.org/Graphics/SVG/1.1/DTD/svg11.dtd">
<svg xmlns="http://www.w3.org/2000/svg" version="1.1" width="512px" height="512px" style="shape-rendering:geometricPrecision; text-rendering:geometricPrecision; image-rendering:optimizeQuality; fill-rule:evenodd; clip-rule:evenodd" xmlns:xlink="http://www.w3.org/1999/xlink">
<g><path style="opacity:0.986" fill="#373737" d="M 249.5,-0.5 C 253.5,-0.5 257.5,-0.5 261.5,-0.5C 265.995,1.18881 269.495,4.18881 272,8.5C 303,62.5 334,116.5 365,170.5C 367.238,177.709 366.738,184.709 363.5,191.5C 366.276,207.727 367.11,224.06 366,240.5C 364.785,247.643 362.285,254.31 358.5,260.5C 363.7,268.209 369.867,275.209 377,281.5C 396.724,306.66 407.391,335.327 409,367.5C 409.667,379.5 409.667,391.5 409,403.5C 403.085,422.714 390.252,429.88 370.5,425C 364.421,421.917 359.254,417.75 355,412.5C 351.728,412.801 349.061,414.135 347,416.5C 343.754,429.71 342.254,443.043 342.5,456.5C 357.695,467.647 361.862,481.981 355,499.5C 350.98,505.081 345.814,509.081 339.5,511.5C 323.167,511.5 306.833,511.5 290.5,511.5C 284.035,508.882 278.869,504.548 275,498.5C 272.881,490.656 271.547,482.656 271,474.5C 269.666,468.168 267,462.501 263,457.5C 258.641,451.399 253.974,451.066 249,456.5C 246.417,459.997 244.084,463.664 242,467.5C 239.727,477.801 237.727,488.134 236,498.5C 232.131,504.548 226.965,508.882 220.5,511.5C 204.167,511.5 187.833,511.5 171.5,511.5C 155.314,504.792 149.481,492.792 154,475.5C 156.747,467.416 161.747,461.083 169,456.5C 168.928,442.994 167.261,429.66 164,416.5C 161.939,414.135 159.272,412.801 156,412.5C 143.972,427.715 129.472,430.548 112.5,421C 106.905,416.409 103.405,410.576 102,403.5C 98.2303,366.442 104.897,331.442 122,298.5C 129.138,286.188 138.304,275.521 149.5,266.5C 150.498,264.51 151.498,262.51 152.5,260.5C 148.715,254.31 146.215,247.643 145,240.5C 143.901,223.896 144.734,207.396 147.5,191C 144.718,185.132 143.884,178.965 145,172.5C 166,135.833 187,99.1667 208,62.5C 211.213,58.9261 215.046,57.9261 219.5,59.5C 221.168,61.34 222.668,63.34 224,65.5C 224.667,67.1667 224.667,68.8333 224,70.5C 203.5,106.167 183,141.833 162.5,177.5C 176.942,174.397 191.609,171.231 206.5,168C 238.831,164.717 271.164,164.717 303.5,168C 318.95,171.089 334.283,174.422 349.5,178C 318.331,124.015 286.997,70.1816 255.5,16.5C 249.333,26.8333 243.167,37.1667 237,47.5C 233.579,50.5363 229.746,51.203 225.5,49.5C 221.829,46.7507 220.663,43.0841 222,38.5C 228.081,27.3367 234.414,16.3367 241,5.5C 243.671,3.09757 246.505,1.09757 249.5,-0.5 Z"/></g>
<g><path style="opacity:1" fill="#e1485a" d="M 219.5,59.5 C 221.5,56.1667 223.5,52.8333 225.5,49.5C 229.746,51.203 233.579,50.5363 237,47.5C 243.167,37.1667 249.333,26.8333 255.5,16.5C 286.997,70.1816 318.331,124.015 349.5,178C 334.283,174.422 318.95,171.089 303.5,168C 271.164,164.717 238.831,164.717 206.5,168C 191.609,171.231 176.942,174.397 162.5,177.5C 183,141.833 203.5,106.167 224,70.5C 224.667,68.8333 224.667,67.1667 224,65.5C 222.668,63.34 221.168,61.34 219.5,59.5 Z"/></g>
<g><path style="opacity:1" fill="#e7b480" d="M 226.5,182.5 C 243.503,182.333 260.503,182.5 277.5,183C 289.314,183.448 300.981,184.948 312.5,187.5C 314.6,194.698 315.433,202.031 315,209.5C 311.757,217.538 305.923,220.371 297.5,218C 269.466,200.004 241.466,200.004 213.5,218C 204.536,220.437 198.702,217.27 196,208.5C 195.661,201.373 196.494,194.373 198.5,187.5C 207.866,185.393 217.199,183.726 226.5,182.5 Z"/></g>
<g><path style="opacity:1" fill="#e0e0e0" d="M 176.5,191.5 C 177.833,191.5 179.167,191.5 180.5,191.5C 175.545,207.127 179.211,220.293 191.5,231C 201.169,236.178 211.169,236.845 221.5,233C 236.581,221.399 253.247,218.399 271.5,224C 279.51,227.672 287.51,231.339 295.5,235C 317.671,237.164 330.005,227.164 332.5,205C 332.354,200.405 331.687,195.905 330.5,191.5C 335.888,192.63 341.222,193.963 346.5,195.5C 349.169,208.703 350.002,222.036 349,235.5C 345.504,251.008 336.671,262.508 322.5,270C 308.263,277.964 293.596,284.964 278.5,291C 270.488,295.671 262.821,300.838 255.5,306.5C 249.638,302.138 243.638,297.972 237.5,294C 220.118,286.429 203.118,278.096 186.5,269C 165.66,255.807 157.493,236.974 162,212.5C 162.521,207.148 163.187,201.815 164,196.5C 168.141,194.514 172.308,192.848 176.5,191.5 Z"/></g>
<g><path style="opacity:1" fill="#3993c5" d="M 165.5,274.5 C 171.965,279.238 178.632,283.738 185.5,288C 200.081,295.193 214.747,302.193 229.5,309C 235.779,312.946 241.779,317.279 247.5,322C 254.112,324.305 260.445,323.639 266.5,320C 270.653,316.425 274.986,313.091 279.5,310C 294.046,302.814 308.713,295.814 323.5,289C 330.94,284.558 338.106,279.725 345,274.5C 356.07,312.53 359.737,351.197 356,390.5C 354.039,393.135 351.539,394.969 348.5,396C 333.218,397.897 317.885,399.231 302.5,400C 269.167,400.667 235.833,400.667 202.5,400C 189.822,399.133 177.155,398.133 164.5,397C 159.815,395.65 156.315,392.817 154,388.5C 151.302,349.815 155.135,311.815 165.5,274.5 Z"/></g>
<g><path style="opacity:1" fill="#29799b" d="M 141.5,300.5 C 142.097,300.735 142.43,301.235 142.5,302C 138.256,326.3 136.256,350.8 136.5,375.5C 130.833,375.5 125.167,375.5 119.5,375.5C 119.23,348.242 126.563,323.242 141.5,300.5 Z"/></g>
<g><path style="opacity:1" fill="#29799c" d="M 368.5,300.5 C 384.348,322.867 392.015,347.867 391.5,375.5C 385.833,375.5 380.167,375.5 374.5,375.5C 374.913,350.285 372.913,325.285 368.5,300.5 Z"/></g>
<g><path style="opacity:1" fill="#897159" d="M 137.5,392.5 C 131.5,392.5 125.5,392.5 119.5,392.5C 119.5,395.167 119.5,397.833 119.5,400.5C 118.523,397.713 118.19,394.713 118.5,391.5C 125.022,391.177 131.355,391.51 137.5,392.5 Z"/></g>
<g><path style="opacity:1" fill="#897159" d="M 373.5,392.5 C 379.645,391.51 385.978,391.177 392.5,391.5C 392.81,394.713 392.477,397.713 391.5,400.5C 391.5,397.833 391.5,395.167 391.5,392.5C 385.5,392.5 379.5,392.5 373.5,392.5 Z"/></g>
<g><path style="opacity:1" fill="#e5b380" d="M 137.5,392.5 C 138.293,395.419 139.626,398.085 141.5,400.5C 136.295,410.508 129.461,411.841 121,404.5C 120.209,403.255 119.709,401.922 119.5,400.5C 119.5,397.833 119.5,395.167 119.5,392.5C 125.5,392.5 131.5,392.5 137.5,392.5 Z"/></g>
<g><path style="opacity:1" fill="#e7b480" d="M 373.5,392.5 C 379.5,392.5 385.5,392.5 391.5,392.5C 391.5,395.167 391.5,397.833 391.5,400.5C 388.753,408.037 383.419,410.537 375.5,408C 372.91,405.996 370.91,403.496 369.5,400.5C 371.374,398.085 372.707,395.419 373.5,392.5 Z"/></g>
<g><path style="opacity:1" fill="#5a6767" d="M 182.5,415.5 C 231.16,418.167 279.827,418.167 328.5,415.5C 325.092,432.34 323.926,449.34 325,466.5C 329.694,469.349 334.027,472.682 338,476.5C 340.34,480.555 341.007,484.889 340,489.5C 339.167,491.667 337.667,493.167 335.5,494C 328.833,494.167 322.167,494.333 315.5,494.5C 308.066,494.633 300.733,494.133 293.5,493C 291.951,491.786 290.785,490.286 290,488.5C 290.821,469.32 284.321,453.153 270.5,440C 260.5,432.667 250.5,432.667 240.5,440C 226.684,453.143 220.184,469.31 221,488.5C 220.215,490.286 219.049,491.786 217.5,493C 203.569,494.614 189.569,494.947 175.5,494C 170.777,490.746 169.277,486.246 171,480.5C 172.738,476.759 175.238,473.592 178.5,471C 184.223,469.781 187.223,466.281 187.5,460.5C 186.9,445.371 185.234,430.371 182.5,415.5 Z"/></g>
</svg>
